<?xml version="1.0" standalone="no"?>
<svg xmlns:xlink="http://www.w3.org/1999/xlink" id="wave" style="transform:rotate(180deg); transition: 0.3s" viewBox="0 0 1440 100" version="1.1" xmlns="http://www.w3.org/2000/svg"><defs><linearGradient id="sw-gradient-0" x1="0" x2="0" y1="1" y2="0"><stop stop-color="rgba(255, 255, 255, 1)" offset="0%"/><stop stop-color="rgba(232.331, 228.276, 255, 1)" offset="100%"/></linearGradient></defs><path style="transform:translate(0, 0px); opacity:1" fill="url(#sw-gradient-0)" d="M0,80L10,76.7C20,73,40,67,60,63.3C80,60,100,60,120,53.3C140,47,160,33,180,28.3C200,23,220,27,240,38.3C260,50,280,70,300,78.3C320,87,340,83,360,76.7C380,70,400,60,420,58.3C440,57,460,63,480,61.7C500,60,520,50,540,50C560,50,580,60,600,55C620,50,640,30,660,26.7C680,23,700,37,720,46.7C740,57,760,63,780,55C800,47,820,23,840,26.7C860,30,880,60,900,68.3C920,77,940,63,960,53.3C980,43,1000,37,1020,40C1040,43,1060,57,1080,60C1100,63,1120,57,1140,50C1160,43,1180,37,1200,40C1220,43,1240,57,1260,66.7C1280,77,1300,83,1320,86.7C1340,90,1360,90,1380,83.3C1400,77,1420,63,1430,56.7L1440,50L1440,100L1430,100C1420,100,1400,100,1380,100C1360,100,1340,100,1320,100C1300,100,1280,100,1260,100C1240,100,1220,100,1200,100C1180,100,1160,100,1140,100C1120,100,1100,100,1080,100C1060,100,1040,100,1020,100C1000,100,980,100,960,100C940,100,920,100,900,100C880,100,860,100,840,100C820,100,800,100,780,100C760,100,740,100,720,100C700,100,680,100,660,100C640,100,620,100,600,100C580,100,560,100,540,100C520,100,500,100,480,100C460,100,440,100,420,100C400,100,380,100,360,100C340,100,320,100,300,100C280,100,260,100,240,100C220,100,200,100,180,100C160,100,140,100,120,100C100,100,80,100,60,100C40,100,20,100,10,100L0,100Z"/></svg>